<?xml version="1.0" encoding="UTF-8"?><svg id="Ebene_1" xmlns="http://www.w3.org/2000/svg" viewBox="0 0 747.75 247.56"><defs><style>.cls-1{fill:#db2b5b;}.cls-2{fill:#267cc0;}</style></defs><g><path class="cls-2" d="m139.2,65.27c-2.29-3.44-5.33-6.25-9.12-8.45.9-.9,2.24-1.82,4.04-2.77,1.79-.95,3.71-1.82,5.76-2.61,2.04-.8,4.06-1.44,6.06-1.94,1.99-.5,3.69-.75,5.08-.75l-.3-.9c-4.29.2-8.45,1-12.48,2.39-4.04,1.4-8,2.94-11.89,4.63-5.58-2.29-11.26-4.04-17.04-5.23-5.78-1.2-12.01-1.79-18.69-1.79-5.38,0-11.04.62-16.97,1.87-5.93,1.25-11.74,3.02-17.42,5.31-5.68,2.3-11.09,5.11-16.22,8.45-5.14,3.34-9.64,7.05-13.53,11.14-3.89,4.09-6.98,8.57-9.27,13.46-2.29,4.88-3.44,10.07-3.44,15.55,0,3.69.55,7.08,1.64,10.17,1.1,3.09,2.67,5.76,4.71,8,2.04,2.24,4.56,3.99,7.55,5.23,2.99,1.25,6.38,1.87,10.17,1.87,5.18,0,9.72-.95,13.61-2.84,3.89-1.89,7.15-4.46,9.79-7.7,2.64-3.24,4.61-6.97,5.91-11.21,1.29-4.23,1.94-8.65,1.94-13.23,0-2.09-.13-4.11-.37-6.06-.25-1.94-.47-3.51-.67-4.71l-1.65.15c.2,1.6.4,3.27.6,5.01.2,1.74.3,3.81.3,6.21,0,4.09-.57,8.05-1.72,11.89-1.15,3.84-2.82,7.23-5.01,10.17-2.19,2.94-4.81,5.28-7.85,7.03-3.04,1.74-6.5,2.62-10.39,2.62-2.79,0-5.23-.7-7.33-2.09s-3.84-3.16-5.23-5.31c-1.4-2.14-2.42-4.51-3.06-7.1-.65-2.59-.97-5.08-.97-7.48,0-8.47,1.99-16.07,5.98-22.8,3.99-6.73,9.09-12.46,15.32-17.2,6.23-4.73,13.13-8.35,20.71-10.84,7.57-2.49,14.9-3.74,21.98-3.74,5.08,0,10.22.72,15.4,2.17,5.18,1.44,9.77,3.71,13.75,6.8-7.47,3.99-14.01,9.19-19.59,15.62-5.58,6.43-10.64,13.26-15.18,20.48-4.54,7.23-8.8,14.5-12.78,21.83-3.99,7.33-8.13,13.96-12.41,19.89-4.29,5.93-9,10.74-14.13,14.43-5.14,3.69-11.09,5.53-17.87,5.53-5.08,0-8.95-.97-11.59-2.92-2.64-1.94-3.96-4.96-3.96-9.05,0-.8.05-1.39.15-1.79,1.2-.2,2.39-.95,3.59-2.24,1.2-1.29,1.79-2.89,1.79-4.78,0-2.09-.67-3.84-2.02-5.23-1.35-1.39-3.16-2.09-5.46-2.09-3.19,0-5.56,1.05-7.1,3.14-1.55,2.09-2.32,4.59-2.32,7.48,0,3.09.75,5.83,2.24,8.22,1.5,2.39,3.44,4.41,5.83,6.06,2.39,1.65,5.11,2.89,8.15,3.74,3.04.85,6.15,1.27,9.34,1.27,9.87,0,18.44-1.82,25.72-5.46,7.27-3.64,13.68-8.37,19.21-14.2,5.53-5.83,10.44-12.36,14.73-19.59,4.28-7.23,8.4-14.4,12.33-21.53,3.94-7.13,7.9-13.83,11.89-20.11,3.99-6.28,8.47-11.41,13.46-15.4,2.19,1.89,3.79,4.11,4.78,6.65,1,2.54,1.5,5.21,1.5,8,0,4.49-.9,8.35-2.69,11.59-1.79,3.24-4.11,5.93-6.95,8.07-2.84,2.14-6.06,3.79-9.64,4.93-3.59,1.15-7.23,1.82-10.91,2.02l-.15,1.2c7.18,0,12.48,1.52,15.92,4.56,3.44,3.04,5.16,7.85,5.16,14.43,0,3.49-.6,7.18-1.79,11.07-1.2,3.89-2.89,7.45-5.08,10.69-2.19,3.24-4.88,5.93-8.07,8.07-3.19,2.14-6.73,3.22-10.61,3.22-2.59,0-4.59-.65-5.98-1.94-1.4-1.3-2.09-3.24-2.09-5.83,0-2.19.47-4.18,1.42-5.98.95-1.79,2.42-3.29,4.41-4.49-2.29-1.99-4.93-2.99-7.92-2.99-2.59,0-4.78.95-6.58,2.84s-2.69,4.14-2.69,6.73c0,2.3.57,4.29,1.72,5.98,1.14,1.7,2.59,3.09,4.34,4.18,1.74,1.1,3.71,1.92,5.91,2.47,2.19.55,4.34.82,6.43.82,5.08,0,10.07-.82,14.95-2.47,4.88-1.64,9.27-4.01,13.16-7.1,3.89-3.09,7-6.85,9.35-11.29,2.34-4.43,3.51-9.39,3.51-14.88,0-3.89-.7-7-2.09-9.34-1.4-2.34-3.27-4.16-5.61-5.46-2.34-1.3-4.99-2.22-7.92-2.77-2.94-.55-5.96-1.02-9.05-1.42l.15-.3c3.49-.6,7.15-1.47,10.99-2.61,3.84-1.14,7.38-2.74,10.62-4.79,3.24-2.04,5.93-4.58,8.07-7.63,2.14-3.04,3.21-6.7,3.21-10.99s-1.15-8.45-3.44-11.89Z"/><path class="cls-2" d="m310.83,137.31c-.4.38-.8.77-1.2,1.14-5.08,4.79-10.14,8.42-15.18,10.92-5.03,2.49-9.64,3.74-13.83,3.74s-7.63-1.35-10.02-4.04c-2.39-2.69-3.59-6.18-3.59-10.46,0-1.59.25-3.39.75-5.38,1.79-.4,4.09-.9,6.88-1.49,2.79-.6,5.78-1.35,8.97-2.24,3.19-.9,6.4-1.94,9.64-3.14,3.24-1.2,6.15-2.59,8.75-4.18,2.59-1.59,4.71-3.39,6.35-5.38,1.64-1.99,2.47-4.19,2.47-6.58,0-2.99-1.2-5.31-3.59-6.95-2.39-1.65-5.73-2.47-10.02-2.47-4.69,0-9.64,1.15-14.88,3.44-5.23,2.29-10.04,5.28-14.43,8.97-4.39,3.69-8.02,7.88-10.92,12.56-1.76,2.86-2.92,5.74-3.61,8.64-1.73,1.87-3.45,3.73-5.21,5.57-1.79,1.79-3.69,3.59-5.68,5.38-2,1.79-3.94,3.36-5.83,4.71-1.9,1.35-3.69,2.44-5.38,3.29-1.7.85-3.14,1.27-4.34,1.27-1.9,0-2.84-1.1-2.84-3.29s.67-4.73,2.02-7.63c1.35-2.89,3.21-6.3,5.61-10.24,2.39-3.94,5.26-8.45,8.6-13.53,3.34-5.08,6.95-10.86,10.84-17.34l-15.4,1.19-12.86,20.93c-2.29,3.79-4.86,7.43-7.7,10.91-2.84,3.49-5.71,6.58-8.6,9.27-2.89,2.69-5.66,4.84-8.3,6.43-2.64,1.6-4.91,2.39-6.8,2.39-1.1,0-1.97-.4-2.62-1.19-.65-.8-.97-1.79-.97-2.99,0-3.79,2.47-9.54,7.4-17.27,4.93-7.72,11.34-17.62,19.21-29.68l-15.85.6c-6.98,11.46-12.51,20.78-16.6,27.96-1.27,2.22-2.31,4.26-3.19,6.16-1.38,1.46-2.75,2.91-4.14,4.3-4.09,4.09-7.92,7.28-11.51,9.57-3.59,2.3-6.43,3.44-8.52,3.44s-3.29-1.35-3.29-4.04,1.15-5.95,3.44-10.09c2.29-4.14,5.38-9.34,9.27-15.62l46.2-73.56-16.6.9-41.71,68.48c-4.29,7.18-7.45,12.88-9.49,17.12s-3.07,7.75-3.07,10.54c0,5.98,3.39,8.97,10.17,8.97,4.78,0,9.39-1.45,13.83-4.34,4.03-2.63,8.62-6.5,13.77-11.6-.84,2.41-1.28,4.5-1.28,6.22,0,2.59.8,4.86,2.39,6.8,1.6,1.94,3.94,2.92,7.03,2.92s6.15-.6,8.9-1.79c2.74-1.2,5.31-2.69,7.7-4.49,2.39-1.79,4.63-3.76,6.73-5.91,2.09-2.14,4.04-4.16,5.83-6.06l.3.3c-.5.8-.92,1.94-1.27,3.44-.35,1.5-.52,3.19-.52,5.08,0,2.69.9,4.93,2.69,6.73,1.79,1.79,4.19,2.69,7.18,2.69,4.19,0,8.42-1.45,12.71-4.34,4.28-2.89,8.97-6.93,14.05-12.11,1.09-1.12,2.12-2.25,3.18-3.38-.09.83-.19,1.65-.19,2.48,0,5.38,1.64,9.77,4.93,13.16,3.29,3.39,7.78,5.09,13.46,5.09s11.54-1.17,17.87-3.52c6.33-2.34,12.93-6.6,19.81-12.78,1.17-1.08,2.31-2.14,3.4-3.2,3.46-3.33,2.15-4.72-1.31-1.38Zm-32.22-23.9c2.54-3.04,5.26-5.61,8.15-7.7,2.89-2.09,5.58-3.14,8.07-3.14,1.2,0,2.17.3,2.92.9.75.6,1.12,1.6,1.12,2.99,0,2.39-.85,4.91-2.54,7.55-1.7,2.64-3.96,5.14-6.8,7.48-2.84,2.34-6.11,4.44-9.79,6.28-3.69,1.84-7.58,3.17-11.66,3.96.6-2.49,1.87-5.41,3.81-8.75,1.94-3.34,4.19-6.53,6.73-9.57Z"/></g><path class="cls-2" d="m723.38,129.48c-3.69,4.29-7.43,8.32-11.21,12.11-4.09,4.09-7.93,7.28-11.51,9.57-3.59,2.3-6.43,3.44-8.52,3.44s-3.29-1.35-3.29-4.04,1.14-5.95,3.44-10.09c2.29-4.14,5.38-9.34,9.27-15.62l46.2-73.56-16.6.9-41.71,68.48c-1.94,3.25-3.64,6.18-5.12,8.82-2.85,3.09-5.76,6.1-8.79,8.97-5.08,4.79-10.14,8.42-15.18,10.92-5.03,2.49-9.64,3.74-13.83,3.74s-7.63-1.35-10.02-4.04-3.59-6.18-3.59-10.46c0-1.59.25-3.39.75-5.38,1.79-.4,4.09-.9,6.88-1.49,2.79-.6,5.78-1.35,8.97-2.24,3.19-.9,6.4-1.94,9.64-3.14,3.24-1.2,6.15-2.59,8.75-4.18,2.59-1.59,4.71-3.39,6.35-5.38,1.65-1.99,2.47-4.19,2.47-6.58,0-2.99-1.2-5.31-3.59-6.95-2.39-1.65-5.73-2.47-10.02-2.47-4.69,0-9.64,1.15-14.88,3.44-5.23,2.29-10.04,5.28-14.43,8.97-4.39,3.69-8.02,7.88-10.91,12.56-1.93,3.13-3.16,6.28-3.8,9.45-2.18,2.29-4.42,4.51-6.74,6.62-4.24,3.84-8.77,7.25-13.6,10.24-4.84,2.99-10.04,5.28-15.63,6.88,5.78-9.27,11.26-18.59,16.45-27.96,5.18-9.37,10.46-18.64,15.85-27.81l-15.25.9-3.44,6.43c-1.2-3.69-2.89-6.23-5.08-7.63-2.19-1.39-5.19-2.09-8.97-2.09-4.88,0-9.82,1.3-14.8,3.89-4.98,2.59-9.47,5.91-13.46,9.94-3.99,4.04-7.23,8.57-9.72,13.61-.9,1.83-1.59,3.64-2.16,5.44-1.72,1.93-3.47,3.87-5.31,5.84-5.48,5.78-9.85,9.74-13.08,11.89-3.24,2.14-5.56,3.22-6.95,3.22s-2.39-.37-2.99-1.12c-.6-.75-.9-1.72-.9-2.92,0-2.79,1.07-5.8,3.21-9.04,2.14-3.24,4.51-6.63,7.1-10.17,2.59-3.54,4.96-7.08,7.1-10.62,2.14-3.54,3.21-7,3.21-10.39,0-2.69-.85-4.96-2.54-6.8-1.7-1.84-4.18-2.77-7.47-2.77-3.89,0-7.78,1.2-11.66,3.59-3.89,2.39-7.53,5.19-10.91,8.37-3.39,3.19-6.41,6.43-9.05,9.72-2.64,3.29-4.66,5.83-6.06,7.63l-.3-.3,19.43-27.21-17.04.6c-5.18,9.07-10.44,17.92-15.77,26.54-1.12,1.8-2.22,3.65-3.33,5.46-.51.55-1.03,1.11-1.52,1.64-4.99,5.08-9.82,9.22-14.5,12.41-4.69,3.19-8.47,4.79-11.36,4.79-1.5,0-2.7-.55-3.59-1.65-.9-1.09-1.35-2.94-1.35-5.53,0-6.88,1.57-14.33,4.71-22.35,3.14-8.02,7.32-16.37,12.56-25.04,5.23-8.67,11.31-17.47,18.24-26.39,6.93-8.92,14.18-17.67,21.76-26.24l-1.05-.9c-7.88,2.39-15.38,5.71-22.5,9.94-7.13,4.24-13.93,9.02-20.41,14.35-6.48,5.33-12.68,11.02-18.61,17.04-5.93,6.03-11.64,12.14-17.12,18.31-2.69,2.99-5.63,6.31-8.82,9.94-3.19,3.64-6.58,7.25-10.17,10.84-3.59,3.59-7.32,7.08-11.22,10.47-3.89,3.39-7.92,6.38-12.11,8.97-2.8,1.73-5.63,3.21-8.5,4.47.3.51.59,1.02.87,1.55.25-.12.5-.22.75-.34,6.38-3.09,12.46-6.95,18.24-11.59,5.78-4.63,11.19-9.69,16.22-15.17,5.03-5.48,9.59-10.62,13.68-15.4h20.93c-2.7,5.08-5.04,10.44-7.03,16.07-2,5.63-2.99,11.49-2.99,17.57,0,1.9.2,3.69.6,5.38.4,1.7,1.07,3.22,2.02,4.56.95,1.35,2.24,2.42,3.89,3.21,1.64.8,3.71,1.2,6.2,1.2,5.08,0,10.14-1.69,15.17-5.08,4.38-2.95,8.78-6.58,13.2-10.81-2.93,4.8-5.87,9.56-8.79,14.4l15.1-.45c1.29-2.49,3.04-5.48,5.23-8.97,2.19-3.49,4.66-7.1,7.4-10.84,2.74-3.74,5.66-7.48,8.75-11.21,3.09-3.74,6.13-7.07,9.12-10.02,2.99-2.94,5.83-5.33,8.52-7.18,2.69-1.84,5.03-2.77,7.03-2.77,1.39,0,2.44.35,3.14,1.05.7.7,1.05,1.6,1.05,2.69,0,2.3-1.07,4.99-3.22,8.07-2.14,3.09-4.51,6.36-7.1,9.79-2.59,3.44-4.96,6.95-7.1,10.54-2.14,3.59-3.21,7.08-3.21,10.47,0,2.69.9,5.08,2.69,7.18s4.58,3.14,8.37,3.14,7.65-1.15,11.29-3.44c3.64-2.29,8.05-6.18,13.23-11.66,1.62-1.69,3.16-3.4,4.71-5.1-.41,2.01-.67,4.02-.67,6,0,3.79,1.07,7.1,3.21,9.94,2.14,2.84,5.26,4.26,9.35,4.26,2.69,0,5.26-.43,7.7-1.27,2.44-.85,4.73-1.94,6.88-3.29,2.14-1.35,4.19-2.89,6.13-4.63,1.94-1.74,3.71-3.56,5.31-5.46l.3.3c-2.29,3.29-4.74,7.03-7.32,11.21-2.59,4.19-5.36,8.4-8.3,12.64-2.94,4.23-6.08,8.37-9.42,12.41-3.34,4.04-6.88,7.65-10.62,10.84-3.74,3.19-7.7,5.73-11.89,7.63-4.19,1.89-8.62,2.84-13.31,2.84-2.59,0-4.91-.43-6.95-1.27-2.04-.85-3.79-2.02-5.23-3.51-1.44-1.49-2.57-3.27-3.36-5.31-.8-2.05-1.2-4.26-1.2-6.65,0-4.99,1.32-8.87,3.96-11.66,2.64-2.79,6.61-4.24,11.89-4.34v-1.05c-1-.1-2.39-.25-4.19-.45-1.79-.2-3.14-.3-4.04-.3-2.49,0-4.96.37-7.4,1.12-2.44.75-4.61,1.84-6.5,3.29s-3.41,3.24-4.56,5.38c-1.14,2.14-1.72,4.56-1.72,7.25,0,3.59.75,6.6,2.24,9.05,1.5,2.44,3.51,4.43,6.06,5.98,2.54,1.54,5.46,2.64,8.75,3.29,3.29.65,6.78.97,10.46.97,7.18,0,13.9-1,20.18-2.99,6.28-2,12.11-4.79,17.49-8.37,5.38-3.59,10.34-7.92,14.88-13.01,4.53-5.08,8.6-10.72,12.19-16.9,5.68-1.6,11.06-3.91,16.15-6.95,5.08-3.04,9.87-6.55,14.35-10.54,2.17-1.93,4.27-3.94,6.32-6.03-.08.81-.18,1.62-.18,2.44,0,5.38,1.64,9.77,4.93,13.16,3.29,3.39,7.77,5.09,13.46,5.09s11.54-1.17,17.87-3.52c6.33-2.34,12.93-6.6,19.81-12.78,2.23-2.05,4.3-4.05,6.25-6.01-.34.66-.65,1.3-.94,1.9-2.04,4.24-3.06,7.75-3.06,10.54,0,5.98,3.39,8.97,10.17,8.97,4.78,0,9.39-1.45,13.83-4.34,4.44-2.89,9.54-7.28,15.33-13.16,1.69-1.69,3.41-3.56,5.16-5.61,1.74-2.04,3.46-4.09,5.16-6.13,1.7-2.04,3.31-4.06,4.86-6.06,1.55-1.99,2.92-3.79,4.11-5.38l-1.35-.45c-3.49,4.59-7.08,9.02-10.76,13.31Zm-85.59-6.5c1.94-3.34,4.18-6.53,6.73-9.57,2.54-3.04,5.26-5.61,8.15-7.7,2.89-2.09,5.58-3.14,8.07-3.14,1.2,0,2.17.3,2.92.9.75.6,1.12,1.6,1.12,2.99,0,2.39-.85,4.91-2.54,7.55-1.7,2.64-3.96,5.14-6.8,7.48-2.84,2.34-6.11,4.44-9.79,6.28-3.69,1.84-7.58,3.17-11.66,3.96.6-2.49,1.87-5.41,3.81-8.75Zm-222.7-15.47c9.76-11.06,19.61-21.18,29.53-30.35,9.92-9.17,20.76-16.84,32.52-23.02l.3.3c-8.37,7.78-16.1,16.1-23.18,24.97-7.08,8.87-13.41,18.24-18.99,28.11h-20.18Zm161.17,36.71c-2.09,2.34-4.24,4.26-6.43,5.76-2.19,1.49-4.33,2.24-6.43,2.24-3.39,0-5.58-1-6.58-2.99-1-1.99-1.5-4.43-1.5-7.32,0-3.29.9-7.18,2.69-11.66,1.79-4.49,4.11-8.8,6.95-12.93,2.84-4.14,6.05-7.63,9.64-10.46,3.59-2.84,7.23-4.26,10.91-4.26,1.39,0,2.49.27,3.29.82.8.55,1.39,1.27,1.79,2.17.4.9.67,1.87.82,2.92.15,1.05.22,2.12.22,3.22,0,1.89-.4,4.21-1.2,6.95-.8,2.74-1.89,5.61-3.29,8.6-1.4,2.99-3.04,5.98-4.93,8.97-1.89,2.99-3.89,5.66-5.98,8Z"/><path class="cls-1" d="m419.48,56.3c-1.13-1.53-2.45-2.02-3.38-2.17-1.02-1.39-3.49-4.32-6.79-5.31-.3-.47-.55-.97-.71-1.51-.51-1.69-1.35-1.83-1.74-1.74-.71.17-.98,1.18-1.03,1.36-.6.11-1.71.26-2.4-.09-.26.14-.36.5-.4.75,0-.02-.01-.02-.03-.04-.36-.56-.62-.56-.62-.56,0,0-.15.4-.77.65,0,0-1.5-.98-2.53-.8-.84.14-1.97,1.05-1.82,2.66-1.94,1.94-8.35,5.46-11.89,5-2.97-2.97-7.32-2.17-7.32-2.17,0,0-2.4-.91-5.6-4.46-2.56-2.83-11.58-19.74-15.53-26.96-1.05-1.92-1.56-2.45-3.51-3.45,0,0-.25-.05-.61-.13V0h-4.71v16.54c-4.38-.44-5.3.46-5.3.46,0,0-.41,1.06,2.38.86,1.29,0,2.24.14,2.92.32v.4c-.09.01-.16.02-.26.03-2.06.34-4.17.63-4.17,1.54s.91.8,1.94.46c.39-.13,1.15-.26,1.92-.37-.4.16-.78.43-.99.91-.27.6.36,1.08,1.19,1.42-.47.33-.92.79-.92,1.37,0,.89.64,1.3,1.28,1.48v64.67c-5.04,7.16-10.35,16.42-12.44,20.04-2.92,1.11-8.79,6.65-9.52,7.38s-3,.82-3,.82c0,0,0,.98,2.66,1.33,2.66.34,5.32-2.4,5.32-2.4v5.83c-.09.06-.17.12-.26.18-24.27,14.58-25.22,16.81-25.22,21.87,0,9.43,15.01,13.04,17.58,14.32,13.32,8.6,20.65,13.83,24.87,16.9v62.48c-.7,1.25-1.38,2.45-2.36,3.43-1.56,1.56-4.69,2.86-6.49,3.52-.33.12-.28.6.07.64,2.5.29,7.78.85,11.95.85,5.66,0,4.55-.86,6.35-4.89,1.79-4.02,3.84-4.71,6.15-5.14l-.48,10.2,1.79.11.8-11.18c2.35-1.57,1.55-4.19.92-5.74-.77-1.89-3.86-3.86-3.86-3.86v-4.63c2.66-12.12,4.42-22.11,5.5-29.09,1.39,7.37,3.93,4.42,3.93,2.5,0-2.14.51-7.03,1.05-10.81.42-2.97-1.58-3.5-3.63-4.25-.04-1.49-.09-3.56-.05-5.73l4.54,1.81.49-1.69-4.96-2.1c0-.09,0-.18.01-.26,2.29-26.99,2.69-40.14,2.69-40.14,0,0,6.55-1.83,5.89-10.81-.46-6.22-6.52-15.67-6.52-15.67l-.34-11.84s14.41-11.04,16.01-12.64c1.6-1.6,4-6.46,4-6.46,0,0,1.32,3.82,1.32,15.67.21-1.06.51-1.77.95-1.77-1.21,13.03.25,18.06.25,18.06l.66-1.22.46,2.07.6-1.79s.01,2.71.83,6.19c.18-.84.59-.96.59-.96,0,0,.31.46.31,4.06,1.06-5.19,1.29-10.81,1.29-10.81,0,0,.44.45.7,1.6.26-.5.53-3.34.53-3.34,0,0,.91,1.32.78,4.87,1.11-2.92,1.14-6.22,1.14-6.22l.86,1.66.2-3.7c.18-3.34,1.6-6.49,3.97-8.84,1.29-1.28,2.6-2.58,3.31-3.29,1.74-1.74.74-4.06,1.37-5.66.63-1.6,2.34-2.12,2.34-4.05.24-5.49,1.8-8.79,3.55-10.54,4.6-4.6,3.89-8,1.92-10.68Zm-66.68,104.71c.58,2.74,1.13,5.47,1.62,8.07-.51-.26-1.06-.56-1.62-.87v-7.19Zm-12-49.92s4.02-5.18,7.29-8.56v8.16c-1.49,1.16-4.02,3.11-7.11,5.39.17-2.65-.18-4.99-.18-4.99Zm-7.89,37.48c-2.66-2.23-8.49-4.55-6.78-5.06,1.7-.51,10.84-2.46,21.96-4.58v25.96c-6.59-7.92-12.57-14.12-15.18-16.31Zm20.67,73.59c-.35,1.55-.6,2.92-.78,4.14v-46.57c.84.59,1.94,1.38,3.18,2.26-.02,21.42-1.63,35.65-2.4,40.17Zm7.03-159.1c-1.06.24-1.94.61-2.66,1.06l-.44-.2c-.43-.19-.86.26-.65.68l.13.25c-3.38,3.16-1.69,8.84-.32,10.21-2.14,2.14-2.92,5.23-2.92,7.98-.31.31-.63.65-.95,1.01V27.04h1.38s3.95,11.15,6.69,18.87c2.74,7.72,5.83,10.03,10.12,13.12-3.26,2.4-6.35,3.26-10.38,4.03Z"/></svg>