<svg xmlns="http://www.w3.org/2000/svg" width="43.476" height="38.645" viewBox="0 0 43.476 38.645">
  <path id="Icon_awesome-cocktail" data-name="Icon awesome-cocktail" d="M22.341,35.022H18.115V25.57L30.851,12.835a1.859,1.859,0,0,0-1.315-3.174H1.863A1.859,1.859,0,0,0,.548,12.835L13.284,25.57v9.451H9.057a3.019,3.019,0,0,0-3.019,3.019.6.6,0,0,0,.6.6H24.757a.6.6,0,0,0,.6-.6A3.019,3.019,0,0,0,22.341,35.022ZM32.606,0A10.836,10.836,0,0,0,22.4,7.246h3.966a7.245,7.245,0,1,1,3.27,10.217l-2.661,2.661A10.854,10.854,0,1,0,32.606,0Z" transform="translate(0)" fill="#db2a5a"/>
</svg>
