<svg xmlns="http://www.w3.org/2000/svg" width="48.305" height="38.644" viewBox="0 0 48.305 38.644">
  <path id="Icon_awesome-door-open" data-name="Icon awesome-door-open" d="M47.1,33.814H41.06V8.563a3.683,3.683,0,0,0-3.623-3.732H28.983V9.661h7.246V38.644H47.1a1.207,1.207,0,0,0,1.208-1.208V35.021A1.207,1.207,0,0,0,47.1,33.814ZM23.567.076,9.075,3.83a2.487,2.487,0,0,0-1.83,2.428V33.814H1.208A1.207,1.207,0,0,0,0,35.021v2.415a1.207,1.207,0,0,0,1.208,1.208h25.36V2.5a2.436,2.436,0,0,0-3-2.428ZM19.926,21.737c-1,0-1.811-1.082-1.811-2.415s.811-2.415,1.811-2.415,1.811,1.082,1.811,2.415S20.926,21.737,19.926,21.737Z" transform="translate(0 0)" fill="#db2a5a"/>
</svg>
