<?xml version="1.0" encoding="UTF-8"?><svg id="Ebene_1" xmlns="http://www.w3.org/2000/svg" viewBox="0 0 139.08 298.45"><defs><style>.cls-1{fill:#db2b5b;}</style></defs><path class="cls-1" d="m137.24,67.87c-1.36-1.84-2.95-2.44-4.07-2.61-1.23-1.68-4.21-5.21-8.19-6.4-.36-.56-.66-1.17-.86-1.82-.61-2.04-1.62-2.21-2.1-2.09-.86.2-1.19,1.42-1.24,1.64-.72.14-2.07.31-2.89-.11-.32.17-.44.61-.49.9-.01-.02-.02-.03-.03-.05-.44-.67-.75-.67-.75-.67,0,0-.18.48-.93.78,0,0-1.81-1.18-3.05-.97-1.01.17-2.37,1.27-2.19,3.21-2.34,2.34-10.06,6.58-14.34,6.03-3.58-3.58-8.82-2.62-8.82-2.62,0,0-2.89-1.1-6.76-5.38-3.08-3.42-13.96-23.8-18.72-32.5-1.26-2.31-1.88-2.96-4.23-4.15,0,0-.3-.07-.74-.16V0h-5.67v19.94c-5.28-.53-6.39.56-6.39.56,0,0-.49,1.28,2.87,1.04,1.55,0,2.7.17,3.52.38v.49c-.11.02-.19.02-.31.04-2.48.41-5.03.76-5.03,1.86s1.1.97,2.34.55c.48-.16,1.38-.31,2.32-.44-.48.19-.94.52-1.19,1.1-.32.73.44,1.3,1.43,1.71-.57.4-1.11.96-1.11,1.65,0,1.07.77,1.56,1.55,1.79v77.96c-6.07,8.63-12.48,19.8-14.99,24.16-3.52,1.34-10.6,8.01-11.48,8.89s-3.62.99-3.62.99c0,0,0,1.19,3.21,1.6,3.21.41,6.41-2.89,6.41-2.89v7.03c-.1.07-.21.14-.31.21C1.14,166.18,0,168.87,0,174.97c0,11.37,18.09,15.72,21.2,17.27,16.06,10.37,24.9,16.68,29.98,20.37v75.32c-.84,1.5-1.67,2.96-2.84,4.13-1.89,1.89-5.66,3.45-7.83,4.25-.4.15-.33.72.09.77,3.01.35,9.38,1.03,14.41,1.03,6.82,0,5.48-1.03,7.65-5.89,2.16-4.84,4.63-5.68,7.41-6.2l-.57,12.3,2.15.13.96-13.48c2.83-1.89,1.87-5.06,1.11-6.91-.93-2.27-4.65-4.65-4.65-4.65v-5.58c3.2-14.61,5.33-26.65,6.63-35.07,1.68,8.89,4.74,5.33,4.74,3.02,0-2.58.62-8.48,1.27-13.03.51-3.58-1.91-4.22-4.37-5.13-.05-1.8-.11-4.29-.06-6.91l5.47,2.18.59-2.03-5.98-2.54c0-.11,0-.21.01-.32,2.76-32.53,3.24-48.39,3.24-48.39,0,0,7.89-2.21,7.1-13.03-.55-7.49-7.86-18.89-7.86-18.89l-.41-14.27s17.37-13.3,19.3-15.23c1.93-1.93,4.83-7.79,4.83-7.79,0,0,1.59,4.6,1.59,18.89.26-1.28.62-2.13,1.15-2.13-1.46,15.71.3,21.78.3,21.78l.79-1.47.56,2.5.73-2.16s.02,3.27,1.01,7.46c.22-1.02.71-1.15.71-1.15,0,0,.38.55.38,4.89,1.28-6.26,1.55-13.03,1.55-13.03,0,0,.53.54.84,1.93.31-.6.64-4.03.64-4.03,0,0,1.09,1.59.94,5.88,1.34-3.52,1.37-7.5,1.37-7.5l1.03,2,.25-4.46c.22-4.02,1.93-7.82,4.79-10.66,1.56-1.55,3.13-3.11,4-3.97,2.1-2.1.9-4.89,1.65-6.82.76-1.93,2.83-2.55,2.83-4.88.29-6.62,2.17-10.6,4.27-12.7,5.55-5.55,4.69-9.65,2.31-12.87Zm-80.38,126.23c.7,3.3,1.37,6.59,1.95,9.72-.61-.32-1.27-.67-1.95-1.05v-8.67Zm-14.46-60.18s4.85-6.24,8.79-10.33v9.84c-1.8,1.4-4.85,3.74-8.57,6.5.2-3.19-.22-6.01-.22-6.01Zm-9.51,45.18c-3.21-2.69-10.24-5.48-8.17-6.1,2.05-.62,13.07-2.96,26.47-5.52v31.29c-7.95-9.54-15.15-17.02-18.3-19.67Zm24.92,88.71c-.42,1.87-.72,3.52-.94,4.99v-56.14c1.01.71,2.34,1.66,3.84,2.73-.03,25.82-1.97,42.98-2.89,48.42Zm8.48-191.8c-1.28.29-2.34.74-3.21,1.28l-.53-.24c-.52-.23-1.04.32-.79.82l.15.3c-4.08,3.8-2.04,10.65-.39,12.3-2.58,2.58-3.52,6.31-3.52,9.62-.37.37-.76.79-1.15,1.22V32.59h1.67s4.76,13.44,8.06,22.75c3.31,9.31,7.03,12.1,12.2,15.82-3.93,2.89-7.65,3.93-12.51,4.86Z"/></svg>