<?xml version="1.0" encoding="UTF-8"?><svg id="Ebene_1" xmlns="http://www.w3.org/2000/svg" viewBox="0 0 731.53 150.89"><defs><style>.cls-1{fill:#267cc0;}</style></defs><path class="cls-1" d="m122.11,59.58c-2.26-1.25-4.81-2.14-7.65-2.67-2.84-.53-5.75-.99-8.73-1.37l.14-.29c3.36-.58,6.9-1.42,10.6-2.53,3.7-1.1,7.12-2.64,10.24-4.61,3.12-1.97,5.72-4.42,7.79-7.36,2.07-2.93,3.1-6.47,3.1-10.6s-1.11-8.15-3.32-11.47c-2.21-3.32-5.15-6.03-8.8-8.15.87-.87,2.16-1.75,3.9-2.67,1.73-.91,3.58-1.75,5.55-2.53,1.97-.77,3.92-1.39,5.84-1.88,1.92-.48,3.56-.72,4.9-.72l-.29-.87c-4.14.19-8.15.96-12.04,2.31-3.9,1.35-7.72,2.84-11.47,4.47-5.39-2.21-10.87-3.9-16.44-5.05-5.58-1.15-11.59-1.73-18.03-1.73-5.19,0-10.65.6-16.37,1.8-5.72,1.2-11.32,2.91-16.81,5.12s-10.7,4.93-15.65,8.15c-4.95,3.22-9.3,6.8-13.05,10.75-3.75,3.94-6.73,8.27-8.94,12.98-2.21,4.71-3.32,9.72-3.32,15,0,3.56.53,6.83,1.59,9.81,1.06,2.98,2.57,5.55,4.54,7.72,1.97,2.16,4.4,3.85,7.28,5.05,2.88,1.2,6.15,1.8,9.81,1.8,5,0,9.38-.91,13.13-2.74,3.75-1.82,6.9-4.3,9.45-7.43,2.55-3.12,4.45-6.73,5.7-10.82,1.25-4.09,1.88-8.34,1.88-12.77,0-2.02-.12-3.97-.36-5.84-.24-1.88-.46-3.39-.65-4.54l-1.59.14c.19,1.54.38,3.15.58,4.83.19,1.68.29,3.68.29,5.99,0,3.94-.55,7.77-1.66,11.47-1.11,3.7-2.72,6.97-4.83,9.81-2.12,2.84-4.64,5.1-7.57,6.78-2.93,1.68-6.28,2.52-10.03,2.52-2.69,0-5.05-.67-7.07-2.02-2.02-1.35-3.7-3.05-5.05-5.12-1.35-2.07-2.33-4.35-2.96-6.85-.63-2.5-.94-4.9-.94-7.21,0-8.17,1.92-15.51,5.77-22,3.84-6.49,8.77-12.02,14.79-16.59,6.01-4.57,12.67-8.05,19.98-10.46,7.31-2.4,14.37-3.61,21.2-3.61,4.9,0,9.86.7,14.86,2.09,5,1.4,9.42,3.58,13.27,6.56-7.21,3.85-13.51,8.87-18.9,15.08-5.39,6.2-10.27,12.79-14.64,19.76-4.38,6.97-8.49,13.99-12.33,21.06-3.85,7.07-7.84,13.46-11.97,19.18-4.14,5.72-8.68,10.36-13.63,13.92-4.95,3.56-10.7,5.34-17.24,5.34-4.9,0-8.63-.94-11.18-2.81-2.55-1.88-3.82-4.78-3.82-8.73,0-.77.05-1.35.14-1.73,1.15-.19,2.31-.91,3.46-2.16,1.15-1.25,1.73-2.79,1.73-4.62,0-2.02-.65-3.7-1.95-5.05-1.3-1.35-3.05-2.02-5.26-2.02-3.08,0-5.36,1.01-6.85,3.03-1.49,2.02-2.24,4.42-2.24,7.21,0,2.98.72,5.63,2.16,7.93,1.44,2.31,3.32,4.25,5.63,5.84,2.31,1.59,4.93,2.79,7.86,3.61,2.93.81,5.94,1.23,9.02,1.23,9.52,0,17.79-1.76,24.81-5.26,7.02-3.51,13.2-8.08,18.54-13.71,5.34-5.63,10.07-11.92,14.21-18.9,4.13-6.97,8.1-13.89,11.9-20.77,3.8-6.87,7.62-13.34,11.47-19.4,3.84-6.06,8.17-11.01,12.98-14.86,2.11,1.83,3.65,3.97,4.62,6.42.96,2.45,1.44,5.03,1.44,7.72,0,4.33-.87,8.05-2.6,11.18-1.73,3.13-3.97,5.72-6.71,7.79-2.74,2.07-5.84,3.66-9.3,4.76-3.46,1.11-6.97,1.76-10.53,1.95l-.14,1.15c6.92,0,12.05,1.47,15.36,4.4,3.32,2.93,4.98,7.57,4.98,13.92,0,3.37-.58,6.92-1.73,10.67-1.15,3.75-2.79,7.19-4.9,10.32-2.12,3.13-4.71,5.72-7.79,7.79-3.08,2.07-6.49,3.1-10.24,3.1-2.5,0-4.42-.62-5.77-1.88-1.35-1.25-2.02-3.12-2.02-5.63,0-2.11.46-4.04,1.37-5.77.91-1.73,2.33-3.17,4.26-4.33-2.21-1.92-4.76-2.88-7.65-2.88-2.5,0-4.62.91-6.35,2.74-1.73,1.83-2.6,3.99-2.6,6.49,0,2.21.55,4.14,1.66,5.77,1.1,1.64,2.5,2.98,4.18,4.04,1.68,1.06,3.58,1.85,5.7,2.38,2.11.53,4.18.79,6.2.79,4.9,0,9.71-.79,14.42-2.38,4.71-1.59,8.94-3.87,12.69-6.85,3.75-2.98,6.76-6.61,9.02-10.89,2.26-4.28,3.39-9.07,3.39-14.36,0-3.75-.67-6.75-2.02-9.02-1.35-2.26-3.15-4.01-5.41-5.26Z"/><path class="cls-1" d="m305.56,78.11c-3.46,3.89-7.07,7.62-10.82,11.18-4.9,4.61-9.79,8.13-14.64,10.53-4.86,2.4-9.3,3.61-13.34,3.61s-7.36-1.3-9.67-3.89c-2.31-2.6-3.46-5.96-3.46-10.1,0-1.54.24-3.27.72-5.19,1.73-.38,3.94-.87,6.64-1.44,2.69-.58,5.58-1.3,8.65-2.16,3.08-.87,6.18-1.88,9.3-3.03,3.12-1.15,5.94-2.5,8.44-4.04,2.5-1.54,4.54-3.27,6.13-5.19,1.59-1.92,2.38-4.04,2.38-6.35,0-2.89-1.15-5.12-3.46-6.71-2.31-1.59-5.53-2.38-9.66-2.38-4.52,0-9.3,1.11-14.35,3.32-5.05,2.21-9.69,5.1-13.92,8.65-4.23,3.56-7.74,7.6-10.53,12.12-1.72,2.79-2.91,5.6-3.56,8.42-1.64,1.77-3.28,3.54-4.94,5.28-1.73,1.73-3.56,3.46-5.48,5.19-1.93,1.73-3.8,3.25-5.63,4.54-1.83,1.3-3.56,2.36-5.19,3.17-1.64.82-3.03,1.22-4.18,1.22-1.83,0-2.74-1.06-2.74-3.17s.65-4.57,1.95-7.36c1.3-2.79,3.1-6.08,5.41-9.88,2.31-3.8,5.07-8.15,8.29-13.05,3.22-4.9,6.71-10.48,10.46-16.73l-14.86,1.15-12.41,20.19c-2.21,3.66-4.69,7.17-7.43,10.53-2.74,3.37-5.51,6.35-8.3,8.94-2.79,2.6-5.46,4.67-8.01,6.2-2.55,1.54-4.74,2.31-6.56,2.31-1.06,0-1.9-.38-2.53-1.15-.63-.77-.94-1.73-.94-2.89,0-3.65,2.38-9.21,7.14-16.66,4.76-7.45,10.94-17,18.54-28.63l-15.29.58c-6.73,11.06-12.07,20.05-16.01,26.97-1.23,2.17-2.25,4.16-3.1,6-1.32,1.39-2.64,2.77-3.97,4.1-3.94,3.94-7.65,7.02-11.11,9.23-3.46,2.21-6.2,3.32-8.22,3.32s-3.17-1.3-3.17-3.89,1.11-5.75,3.32-9.74c2.21-3.99,5.19-9.01,8.94-15.07L198.96,5.19l-16.01.86-40.25,66.07c-4.14,6.92-7.19,12.43-9.16,16.52-1.97,4.09-2.96,7.48-2.96,10.17,0,5.77,3.27,8.66,9.81,8.66,4.62,0,9.06-1.4,13.34-4.18,3.89-2.53,8.32-6.27,13.28-11.19-.81,2.33-1.24,4.34-1.24,6,0,2.5.77,4.69,2.31,6.57,1.54,1.88,3.8,2.81,6.78,2.81s5.94-.58,8.58-1.73c2.64-1.15,5.12-2.6,7.43-4.33,2.31-1.73,4.47-3.63,6.49-5.7,2.02-2.07,3.9-4.01,5.63-5.84l.29.29c-.48.77-.89,1.88-1.23,3.32-.34,1.44-.5,3.08-.5,4.9,0,2.6.87,4.76,2.6,6.49,1.73,1.73,4.04,2.6,6.92,2.6,4.04,0,8.13-1.4,12.26-4.18,4.13-2.79,8.66-6.68,13.56-11.68,1.02-1.04,2.02-2.09,3.01-3.14-.08.76-.13,1.52-.13,2.28,0,5.19,1.59,9.43,4.76,12.69,3.17,3.27,7.5,4.9,12.98,4.9s11.13-1.13,17.24-3.39c6.11-2.26,12.48-6.37,19.11-12.33,4.71-4.33,8.77-8.46,12.19-12.4,3.41-3.94,6.61-7.93,9.59-11.97l-1.01-1.01c-2.6,3.37-5.63,7-9.09,10.89Zm-47.24-3.75c1.88-3.22,4.04-6.3,6.49-9.23,2.45-2.93,5.07-5.41,7.86-7.43,2.79-2.02,5.38-3.03,7.79-3.03,1.15,0,2.09.29,2.81.86.72.58,1.08,1.54,1.08,2.89,0,2.31-.82,4.74-2.45,7.29-1.64,2.55-3.82,4.95-6.56,7.21-2.74,2.26-5.89,4.28-9.45,6.06-3.56,1.78-7.31,3.05-11.25,3.82.58-2.4,1.8-5.21,3.68-8.44Z"/><path class="cls-1" d="m708.01,80.64c-3.56,4.14-7.17,8.03-10.82,11.68-3.95,3.94-7.65,7.02-11.11,9.23-3.46,2.21-6.2,3.32-8.22,3.32s-3.17-1.3-3.17-3.89,1.1-5.75,3.32-9.74c2.21-3.99,5.19-9.01,8.94-15.07l44.57-70.97-16.01.86-40.25,66.07c-1.9,3.19-3.57,6.06-5.02,8.65-2.72,2.94-5.51,5.78-8.4,8.52-4.9,4.61-9.79,8.13-14.64,10.53-4.86,2.4-9.3,3.61-13.34,3.61s-7.36-1.3-9.67-3.89c-2.31-2.6-3.46-5.96-3.46-10.1,0-1.54.24-3.27.72-5.19,1.73-.38,3.94-.87,6.64-1.44,2.69-.58,5.58-1.3,8.65-2.16,3.08-.87,6.18-1.88,9.3-3.03,3.12-1.15,5.94-2.5,8.44-4.04,2.5-1.54,4.54-3.27,6.13-5.19,1.59-1.92,2.38-4.04,2.38-6.35,0-2.89-1.15-5.12-3.46-6.71-2.31-1.59-5.53-2.38-9.67-2.38-4.52,0-9.3,1.11-14.35,3.32-5.05,2.21-9.69,5.1-13.92,8.65-4.23,3.56-7.74,7.6-10.53,12.12-1.88,3.05-3.11,6.11-3.72,9.2-2.08,2.18-4.23,4.29-6.45,6.3-4.09,3.7-8.46,7-13.13,9.88-4.67,2.89-9.69,5.1-15.08,6.64,5.58-8.94,10.87-17.93,15.87-26.97,5-9.04,10.1-17.98,15.29-26.83l-14.72.86-3.32,6.2c-1.15-3.56-2.79-6.01-4.9-7.36-2.12-1.34-5-2.02-8.65-2.02-4.71,0-9.47,1.25-14.28,3.75-4.81,2.5-9.14,5.7-12.98,9.59-3.85,3.89-6.97,8.27-9.38,13.13-.89,1.8-1.62,3.59-2.18,5.37-1.62,1.82-3.29,3.66-5.03,5.52-5.29,5.58-9.5,9.4-12.62,11.47-3.13,2.07-5.36,3.1-6.71,3.1s-2.31-.36-2.89-1.08c-.58-.72-.86-1.66-.86-2.81,0-2.69,1.03-5.6,3.1-8.73,2.07-3.12,4.35-6.39,6.85-9.81,2.5-3.41,4.78-6.83,6.85-10.24,2.07-3.41,3.1-6.75,3.1-10.03,0-2.6-.82-4.78-2.45-6.56-1.64-1.78-4.04-2.67-7.21-2.67-3.75,0-7.5,1.15-11.25,3.46-3.75,2.31-7.26,5-10.53,8.08-3.27,3.08-6.18,6.2-8.73,9.38-2.55,3.18-4.5,5.63-5.84,7.36l-.29-.29,18.75-26.25-16.44.58c-5,8.75-10.07,17.29-15.22,25.6-1.1,1.77-2.18,3.56-3.28,5.34-.47.51-.95,1.03-1.41,1.52-4.81,4.9-9.48,8.9-13.99,11.97-4.53,3.08-8.18,4.61-10.96,4.61-1.45,0-2.6-.53-3.46-1.59-.87-1.06-1.3-2.84-1.3-5.34,0-6.64,1.51-13.82,4.54-21.57,3.03-7.74,7.07-15.79,12.12-24.16,5.05-8.37,10.91-16.85,17.6-25.46s13.68-17.04,20.99-25.32l-1.01-.87c-7.6,2.31-14.84,5.51-21.71,9.59-6.88,4.09-13.44,8.7-19.69,13.85-6.25,5.15-12.24,10.63-17.96,16.44-5.73,5.82-11.23,11.71-16.52,17.67-2.6,2.88-5.43,6.08-8.51,9.59-3.08,3.51-6.35,7-9.81,10.46-3.46,3.46-7.07,6.83-10.82,10.1-3.75,3.27-7.64,6.16-11.68,8.65-4.04,2.5-8.15,4.5-12.33,5.99-4.18,1.49-8.44,2.24-12.77,2.24-1.73,0-3.51-.29-5.34-.87-1.83-.57-3.46-1.39-4.9-2.45-1.44-1.06-2.64-2.4-3.61-4.04-.96-1.64-1.44-3.46-1.44-5.48,2.5,0,4.52-.58,6.06-1.73,1.54-1.15,2.31-3.03,2.31-5.63,0-1.73-.67-3.2-2.02-4.4-1.35-1.2-2.98-1.8-4.9-1.8-3.08,0-5.38,1.15-6.92,3.46-1.54,2.31-2.31,4.86-2.31,7.65,0,2.98.63,5.53,1.88,7.64,1.25,2.12,2.93,3.87,5.05,5.26,2.12,1.4,4.5,2.43,7.14,3.1,2.64.68,5.41,1.01,8.3,1.01,6.63,0,13.03-1.49,19.18-4.47,6.15-2.98,12.02-6.71,17.6-11.18,5.58-4.47,10.79-9.35,15.65-14.64,4.85-5.29,9.25-10.24,13.2-14.86h20.2c-2.6,4.9-4.86,10.07-6.78,15.51-1.93,5.43-2.89,11.08-2.89,16.95,0,1.83.19,3.56.58,5.19.38,1.64,1.03,3.1,1.95,4.4.91,1.3,2.16,2.33,3.75,3.1,1.58.77,3.58,1.15,5.99,1.15,4.9,0,9.78-1.64,14.64-4.9,4.17-2.81,8.37-6.23,12.58-10.25-2.78,4.55-5.56,9.12-8.32,13.71l14.57-.43c1.25-2.4,2.93-5.29,5.05-8.66,2.11-3.36,4.5-6.85,7.14-10.46,2.64-3.61,5.46-7.21,8.44-10.82,2.98-3.61,5.91-6.83,8.8-9.67,2.89-2.84,5.63-5.14,8.22-6.92,2.6-1.78,4.85-2.67,6.78-2.67,1.35,0,2.35.34,3.03,1.01.67.67,1.01,1.54,1.01,2.6,0,2.21-1.04,4.81-3.1,7.79-2.07,2.98-4.35,6.13-6.85,9.45-2.5,3.32-4.78,6.71-6.85,10.17-2.07,3.46-3.1,6.83-3.1,10.1,0,2.6.86,4.9,2.6,6.93,1.73,2.02,4.42,3.03,8.08,3.03s7.38-1.11,10.89-3.32c3.51-2.21,7.76-5.96,12.77-11.25,1.53-1.6,3.02-3.21,4.48-4.83-.38,1.91-.59,3.81-.59,5.69,0,3.66,1.03,6.85,3.1,9.59,2.07,2.74,5.07,4.11,9.02,4.11,2.6,0,5.07-.41,7.43-1.23,2.36-.82,4.57-1.88,6.64-3.17,2.07-1.3,4.04-2.79,5.91-4.47,1.88-1.68,3.58-3.44,5.12-5.27l.29.29c-2.21,3.17-4.57,6.78-7.07,10.82-2.5,4.04-5.17,8.1-8.01,12.19-2.84,4.09-5.87,8.08-9.09,11.97-3.22,3.89-6.64,7.38-10.24,10.46-3.61,3.08-7.43,5.53-11.47,7.36-4.04,1.82-8.32,2.74-12.84,2.74-2.5,0-4.74-.41-6.71-1.23-1.97-.82-3.65-1.95-5.05-3.39-1.39-1.44-2.48-3.15-3.25-5.12-.77-1.97-1.15-4.11-1.15-6.42,0-4.81,1.28-8.56,3.82-11.25,2.55-2.69,6.37-4.09,11.47-4.18v-1.01c-.96-.1-2.31-.24-4.04-.43-1.73-.19-3.03-.29-3.89-.29-2.4,0-4.78.36-7.14,1.08-2.35.72-4.45,1.78-6.27,3.17-1.83,1.39-3.29,3.12-4.4,5.19-1.1,2.07-1.66,4.4-1.66,7,0,3.46.72,6.37,2.16,8.73,1.44,2.36,3.39,4.28,5.84,5.77,2.45,1.49,5.26,2.55,8.44,3.17,3.17.62,6.54.94,10.1.94,6.92,0,13.42-.96,19.47-2.89,6.06-1.93,11.68-4.61,16.88-8.08,5.19-3.46,9.98-7.65,14.35-12.55,4.38-4.9,8.29-10.34,11.76-16.3,5.48-1.54,10.67-3.78,15.58-6.71,4.9-2.93,9.52-6.32,13.85-10.17,2.08-1.85,4.09-3.77,6.04-5.76-.08.76-.13,1.53-.13,2.3,0,5.19,1.59,9.43,4.76,12.69,3.17,3.27,7.5,4.9,12.98,4.9s11.13-1.13,17.24-3.39c6.1-2.26,12.48-6.37,19.11-12.33,2.14-1.97,4.15-3.9,6.02-5.79-.32.63-.63,1.24-.9,1.82-1.97,4.09-2.96,7.48-2.96,10.17,0,5.77,3.27,8.66,9.81,8.66,4.61,0,9.06-1.4,13.34-4.18s9.21-7.02,14.79-12.69c1.63-1.63,3.29-3.44,4.98-5.41,1.68-1.97,3.34-3.94,4.98-5.91,1.64-1.97,3.2-3.92,4.69-5.84,1.49-1.92,2.81-3.65,3.97-5.19l-1.3-.43c-3.37,4.42-6.83,8.7-10.39,12.84Zm-82.58-6.28c1.88-3.22,4.04-6.3,6.49-9.23,2.45-2.93,5.07-5.41,7.86-7.43,2.79-2.02,5.38-3.03,7.79-3.03,1.15,0,2.09.29,2.81.86.72.58,1.08,1.54,1.08,2.89,0,2.31-.82,4.74-2.45,7.29-1.64,2.55-3.82,4.95-6.56,7.21-2.74,2.26-5.89,4.28-9.45,6.06-3.56,1.78-7.31,3.05-11.25,3.82.58-2.4,1.8-5.21,3.68-8.44Zm-214.86-14.93c9.42-10.68,18.92-20.43,28.49-29.28,9.57-8.85,20.03-16.25,31.37-22.22l.29.29c-8.08,7.5-15.53,15.53-22.36,24.09-6.83,8.56-12.93,17.6-18.32,27.12h-19.47Zm155.5,35.41c-2.02,2.26-4.09,4.11-6.2,5.55-2.11,1.44-4.18,2.16-6.2,2.16-3.27,0-5.39-.96-6.35-2.89-.96-1.92-1.44-4.28-1.44-7.07,0-3.17.87-6.92,2.6-11.25s3.97-8.49,6.71-12.48c2.74-3.99,5.84-7.36,9.3-10.1,3.46-2.74,6.97-4.11,10.53-4.11,1.35,0,2.4.27,3.17.79.77.53,1.35,1.22,1.73,2.09.38.86.65,1.8.79,2.81.14,1.01.22,2.04.22,3.1,0,1.83-.39,4.07-1.15,6.71-.77,2.65-1.83,5.41-3.17,8.29-1.35,2.89-2.94,5.77-4.76,8.65-1.83,2.89-3.75,5.46-5.77,7.72Z"/></svg>