<svg xmlns="http://www.w3.org/2000/svg" width="33.553" height="38.644" viewBox="0 0 33.553 38.644">
  <path id="Icon_metro-fire" data-name="Icon metro-fire" d="M14.147,40.572c-2.576-5.359-1.2-8.43.776-11.323a18.039,18.039,0,0,0,2.726-6.3,7.408,7.408,0,0,1,1.022,5.68A14.335,14.335,0,0,0,21.8,17.889c6.8,4.756,9.713,15.052,5.794,22.683C48.435,28.778,32.774,11.13,30.048,9.142c.909,1.988,1.081,5.353-.755,6.986C26.185,4.343,18.5,1.928,18.5,1.928c.909,6.078-3.294,12.723-7.348,17.689A13.135,13.135,0,0,0,9.585,13.2C9.3,17.6,5.935,21.193,5.023,25.6,3.789,31.578,5.948,35.952,14.147,40.572Z" transform="translate(-4.701 -1.928)" fill="#db2a5a"/>
</svg>
